<svg width="89" height="87" viewBox="0 0 89 87" fill="none" xmlns="http://www.w3.org/2000/svg">
<g clip-path="url(#clip0_612_11)">
<path d="M55.4261 0.0067749C55.4261 0.0067749 53.6795 33.2814 48.5139 35.8177C43.3483 38.354 23.2936 39.3794 23.2936 39.3794C23.2936 39.3794 49.0226 44.6936 50.8547 51.3133C52.6869 57.933 55.4351 83.6326 55.4351 83.6326" fill="black"/>
<path d="M55.4261 0.0067749C55.4261 0.0067749 57.175 33.2814 62.3384 35.8177C67.5017 38.354 87.5677 39.3884 87.5677 39.3884C87.5677 39.3884 61.8387 44.6936 60.0065 51.3133C58.1744 57.933 55.4261 83.6326 55.4261 83.6326" fill="black"/>
<path d="M16.1855 0.0067749C16.1855 0.0067749 15.3527 15.848 12.8948 17.0495C10.4369 18.251 0.884521 18.7501 0.884521 18.7501C0.884521 18.7501 13.1334 21.2797 14.0045 24.4325C14.8755 27.5854 16.1855 39.8175 16.1855 39.8175" fill="white"/>
<path d="M16.1855 0.0067749C16.1855 0.0067749 15.3527 15.848 12.8948 17.0495C10.4369 18.251 0.884521 18.7501 0.884521 18.7501C0.884521 18.7501 13.1334 21.2797 14.0045 24.4325C14.8755 27.5854 16.1855 39.8175 16.1855 39.8175" stroke="black" stroke-miterlimit="10"/>
<path d="M16.1855 0.0067749C16.1855 0.0067749 17.0183 15.848 19.4672 17.0495C21.9161 18.251 31.4798 18.7501 31.4798 18.7501C31.4798 18.7501 19.2421 21.2797 18.3666 24.4325C17.491 27.5854 16.1855 39.8175 16.1855 39.8175" fill="white"/>
<path d="M16.1855 0.0067749C16.1855 0.0067749 17.0183 15.848 19.4672 17.0495C21.9161 18.251 31.4798 18.7501 31.4798 18.7501C31.4798 18.7501 19.2421 21.2797 18.3666 24.4325C17.491 27.5854 16.1855 39.8175 16.1855 39.8175" stroke="black" stroke-miterlimit="10"/>
<path d="M28.6956 47.1757C28.6956 47.1757 27.8628 63.0169 25.4049 64.2207C22.9471 65.4245 13.3901 65.9191 13.3901 65.9191C13.3901 65.9191 25.639 68.4509 26.5123 71.6015C27.3857 74.7521 28.6956 86.9864 28.6956 86.9864" fill="black"/>
<path d="M28.6956 47.1757C28.6956 47.1757 29.5284 63.0169 31.9862 64.2207C34.4441 65.4245 44.0011 65.9191 44.0011 65.9191C44.0011 65.9191 31.7499 68.4509 30.8788 71.6015C30.0078 74.7521 28.6956 86.9864 28.6956 86.9864" fill="black"/>
<path d="M16.1855 0.0067749C16.1855 0.0067749 15.3527 15.848 12.8948 17.0495C10.4369 18.251 0.884521 18.7501 0.884521 18.7501C0.884521 18.7501 13.1334 21.2797 14.0045 24.4325C14.8755 27.5854 16.1855 39.8175 16.1855 39.8175" fill="black"/>
<path d="M16.1855 0.0067749C16.1855 0.0067749 17.0183 15.848 19.4672 17.0495C21.9161 18.251 31.4798 18.7501 31.4798 18.7501C31.4798 18.7501 19.2421 21.2797 18.3666 24.4325C17.491 27.5854 16.1855 39.8175 16.1855 39.8175" fill="black"/>
</g>
<defs>
<clipPath id="clip0_612_11">
<rect width="88.45" height="87" fill="white"/>
</clipPath>
</defs>
</svg>
