<svg width="58" height="57" viewBox="0 0 58 57" fill="none" xmlns="http://www.w3.org/2000/svg">
<g clip-path="url(#clip0_612_11)">
<path d="M36.3137 0.00445557C36.3137 0.00445557 35.1694 21.8051 31.785 23.4668C28.4006 25.1285 15.2614 25.8003 15.2614 25.8003C15.2614 25.8003 32.1183 29.282 33.3187 33.6191C34.519 37.9561 36.3196 54.7938 36.3196 54.7938" fill="white"/>
<path d="M36.3137 0.00445557C36.3137 0.00445557 35.1694 21.8051 31.785 23.4668C28.4006 25.1285 15.2614 25.8003 15.2614 25.8003C15.2614 25.8003 32.1183 29.282 33.3187 33.6191C34.519 37.9561 36.3196 54.7938 36.3196 54.7938" stroke="url(#paint0_linear_612_11)" stroke-miterlimit="10"/>
<path d="M36.3137 0.00445557C36.3137 0.00445557 37.4595 21.8051 40.8424 23.4668C44.2253 25.1285 57.372 25.8062 57.372 25.8062C57.372 25.8062 40.515 29.282 39.3147 33.6191C38.1143 37.9561 36.3137 54.7938 36.3137 54.7938" fill="white"/>
<path d="M36.3137 0.00445557C36.3137 0.00445557 37.4595 21.8051 40.8424 23.4668C44.2253 25.1285 57.372 25.8062 57.372 25.8062C57.372 25.8062 40.515 29.282 39.3147 33.6191C38.1143 37.9561 36.3137 54.7938 36.3137 54.7938" stroke="url(#paint1_linear_612_11)" stroke-miterlimit="10"/>
<path d="M10.6043 0.00445557C10.6043 0.00445557 10.0586 10.3832 8.44829 11.1704C6.83796 11.9576 0.579468 12.2846 0.579468 12.2846C0.579468 12.2846 8.60461 13.9419 9.1753 16.0075C9.746 18.0732 10.6043 26.0873 10.6043 26.0873" fill="white"/>
<path d="M10.6043 0.00445557C10.6043 0.00445557 10.0586 10.3832 8.44829 11.1704C6.83796 11.9576 0.579468 12.2846 0.579468 12.2846C0.579468 12.2846 8.60461 13.9419 9.1753 16.0075C9.746 18.0732 10.6043 26.0873 10.6043 26.0873" stroke="black" stroke-miterlimit="10"/>
<path d="M10.6044 0.00445557C10.6044 0.00445557 11.15 10.3832 12.7544 11.1704C14.3589 11.9576 20.6247 12.2846 20.6247 12.2846C20.6247 12.2846 12.607 13.9419 12.0333 16.0075C11.4597 18.0732 10.6044 26.0873 10.6044 26.0873" fill="white"/>
<path d="M10.6044 0.00445557C10.6044 0.00445557 11.15 10.3832 12.7544 11.1704C14.3589 11.9576 20.6247 12.2846 20.6247 12.2846C20.6247 12.2846 12.607 13.9419 12.0333 16.0075C11.4597 18.0732 10.6044 26.0873 10.6044 26.0873" stroke="black" stroke-miterlimit="10"/>
<path d="M18.8006 30.9082C18.8006 30.9082 18.2549 41.2869 16.6446 42.0756C15.0343 42.8643 8.77283 43.1884 8.77283 43.1884C8.77283 43.1884 16.798 44.8471 17.3701 46.9113C17.9423 48.9755 18.8006 56.9911 18.8006 56.9911" fill="white"/>
<path d="M18.8006 30.9082C18.8006 30.9082 18.2549 41.2869 16.6446 42.0756C15.0343 42.8643 8.77283 43.1884 8.77283 43.1884C8.77283 43.1884 16.798 44.8471 17.3701 46.9113C17.9423 48.9755 18.8006 56.9911 18.8006 56.9911" stroke="black" stroke-miterlimit="10"/>
<path d="M18.8005 30.9082C18.8005 30.9082 19.3462 41.2869 20.9565 42.0756C22.5668 42.8643 28.8283 43.1884 28.8283 43.1884C28.8283 43.1884 20.8017 44.8471 20.231 46.9113C19.6603 48.9755 18.8005 56.9911 18.8005 56.9911" fill="white"/>
<path d="M18.8005 30.9082C18.8005 30.9082 19.3462 41.2869 20.9565 42.0756C22.5668 42.8643 28.8283 43.1884 28.8283 43.1884C28.8283 43.1884 20.8017 44.8471 20.231 46.9113C19.6603 48.9755 18.8005 56.9911 18.8005 56.9911" stroke="black" stroke-miterlimit="10"/>
<path d="M10.6043 0.00445557C10.6043 0.00445557 10.0586 10.3832 8.44829 11.1704C6.83796 11.9576 0.579468 12.2846 0.579468 12.2846C0.579468 12.2846 8.60461 13.9419 9.1753 16.0075C9.746 18.0732 10.6043 26.0873 10.6043 26.0873" fill="white"/>
<path d="M10.6043 0.00445557C10.6043 0.00445557 10.0586 10.3832 8.44829 11.1704C6.83796 11.9576 0.579468 12.2846 0.579468 12.2846C0.579468 12.2846 8.60461 13.9419 9.1753 16.0075C9.746 18.0732 10.6043 26.0873 10.6043 26.0873" stroke="#231F20" stroke-miterlimit="10"/>
<path d="M10.6044 0.00445557C10.6044 0.00445557 11.15 10.3832 12.7544 11.1704C14.3589 11.9576 20.6247 12.2846 20.6247 12.2846C20.6247 12.2846 12.607 13.9419 12.0333 16.0075C11.4597 18.0732 10.6044 26.0873 10.6044 26.0873" fill="white"/>
<path d="M10.6044 0.00445557C10.6044 0.00445557 11.15 10.3832 12.7544 11.1704C14.3589 11.9576 20.6247 12.2846 20.6247 12.2846C20.6247 12.2846 12.607 13.9419 12.0333 16.0075C11.4597 18.0732 10.6044 26.0873 10.6044 26.0873" stroke="#231F20" stroke-miterlimit="10"/>
</g>
<defs>
<linearGradient id="paint0_linear_612_11" x1="14.6759" y1="27.3998" x2="36.3874" y2="27.3998" gradientUnits="userSpaceOnUse">
<stop/>
<stop offset="1"/>
</linearGradient>
<linearGradient id="paint1_linear_612_11" x1="5285.3" y1="10551.3" x2="8385.7" y2="10551.3" gradientUnits="userSpaceOnUse">
<stop/>
<stop offset="1" stop-color="white"/>
</linearGradient>
<clipPath id="clip0_612_11">
<rect width="57.95" height="57" fill="white"/>
</clipPath>
</defs>
</svg>
